<?xml version="1.0" encoding="utf-8"?>
<!-- Generator: Adobe Illustrator 16.0.0, SVG Export Plug-In . SVG Version: 6.00 Build 0)  -->
<!DOCTYPE svg PUBLIC "-//W3C//DTD SVG 1.1//EN" "http://www.w3.org/Graphics/SVG/1.1/DTD/svg11.dtd">
<svg version="1.1" id="图层_1" xmlns="http://www.w3.org/2000/svg" xmlns:xlink="http://www.w3.org/1999/xlink" x="0px" y="0px"
	 width="16px" height="14px" viewBox="0 0 16 14" enable-background="new 0 0 16 14" xml:space="preserve">
<g>
	<path fill="#86CC16" d="M4.014,11.471h5.119C8.93,10.991,8.818,10.464,8.818,9.91c0-1.431,0.756-2.682,1.887-3.394V0H4.014V11.471z
		 M7.36,10.313c-0.408,0-0.737-0.331-0.737-0.738S6.952,8.838,7.36,8.838s0.736,0.33,0.736,0.737S7.768,10.313,7.36,10.313z
		 M4.97,0.956h4.78v1.146H4.97V0.956z M4.97,3.06h4.78v1.146H4.97V3.06z M4.97,5.162h4.78v1.146H4.97V5.162z M11.256,0.86v0.812
		h2.652v0.975h-2.652v0.813h2.652v0.975h-2.652v0.812h2.652v0.805c0.285,0.079,0.555,0.188,0.811,0.326V0.86H11.256z M0,10.61h3.464
		V9.05c-0.025,0.321-0.291,0.576-0.62,0.576c-0.347,0-0.627-0.28-0.627-0.626c0-0.347,0.28-0.628,0.627-0.628
		c0.329,0,0.595,0.255,0.62,0.577V6.223H0.812V5.248h2.652V4.436H0.812V3.461h2.652V2.647H0.812V1.673h2.652V0.86H0V10.61z"/>
	<path fill="#86CC16" d="M12.84,6.752c-1.748,0-3.162,1.414-3.162,3.158c0,1.745,1.414,3.161,3.162,3.161
		c1.744,0,3.16-1.416,3.16-3.161C16,8.166,14.584,6.752,12.84,6.752z M12.014,11.911l0.041-4l2.514,2.027L12.014,11.911z"/>
</g>
</svg>
