<svg width="15.466995" height="16.000000" viewBox="0 0 15.467 16" fill="none" xmlns="http://www.w3.org/2000/svg" xmlns:xlink="http://www.w3.org/1999/xlink">
	<desc>
			Created with Pixso.
	</desc>
	<path id="path" d="M6.466 15.948L6.33099 15.813L6.062 15.55C5.621 15.046 5.44099 14.47 5.498 13.927C5.312 14.197 5.01801 14.384 4.666 14.384C4.10001 14.384 3.63899 13.924 3.63899 13.356C3.63899 12.788 4.10001 12.329 4.666 12.329C5.215 12.329 5.64999 12.76 5.68201 13.301C5.77 13.128 5.877 12.961 6.022 12.812L7.314 11.782C6.974 11.645 6.662 11.442 6.394 11.175C5.77499 10.556 5.51599 9.66901 5.64999 8.80299L1.334 8.80299L1.334 7.2L6.035 7.2L6.064 7.09L6.101 6.95599L6.13499 6.83L7.646 6.55C7.879 6.48801 8.12 6.457 8.36 6.457C8.69901 6.457 9.02699 6.524 9.334 6.64L9.334 0L0 0L0 16L0.666 16L6.466 15.948ZM1.334 1.33401L7.998 1.33401L7.998 2.93201L1.334 2.93201L1.334 1.33401ZM1.334 4.267L7.998 4.267L7.998 5.866L1.334 5.866L1.334 4.267Z" fill-rule="nonzero" fill="#DFC320"/>
	<path id="path" d="M9.34599 10.689L13.235 15.627C13.829 16.197 14.471 15.842 14.749 15.596L15.067 15.284C15.303 15.011 15.665 14.451 15.149 13.766L10.157 9.881C10.553 9.134 10.448 8.188 9.819 7.558C9.30099 7.041 8.573 6.877 7.914 7.05099L9.118 8.259L9.118 9.653L7.72 9.653L6.51801 8.448C6.342 9.108 6.505 9.838 7.019 10.351C7.651 10.984 8.59799 11.092 9.34599 10.689ZM13.74 14.861C13.578 14.697 13.578 14.434 13.74 14.276C13.9 14.115 14.162 14.115 14.324 14.276C14.482 14.434 14.482 14.697 14.324 14.861C14.162 15.02 13.9 15.02 13.74 14.861Z" fill-rule="nonzero" fill="#F74848"/>
	<path id="path" d="M10.562 10.77L10.996 10.704L13.719 7.979L13.719 7.631L15.117 6.933L15.467 7.283L14.768 8.681L14.42 8.681L11.658 11.437L11.607 11.81L8.562 15.722C7.87399 15.988 7.31599 15.878 7.043 15.64L6.731 15.326C6.48601 15.045 6.127 14.4 6.7 13.81L10.562 10.77Z" fill-rule="nonzero" fill="#F74848"/>
	<defs/>
</svg>
