<svg width="15.000000" height="16.000000" viewBox="0 0 15 16" fill="none" xmlns="http://www.w3.org/2000/svg" xmlns:xlink="http://www.w3.org/1999/xlink">
	<desc>
			Created with Pixso.
	</desc>
	<path id="path" d="M5.94092 12.197C5.94092 10.705 6.62598 9.383 7.68115 8.48297L1.28418 8.48297L1.28418 6.94202L7.71191 6.94202L7.68115 8.48297C8.06787 8.15802 8.52393 7.85498 8.99707 7.66199L8.99707 0L0 0L0 15.425L0.64209 15.425L7.18408 15.425C6.41992 14.561 5.94092 13.438 5.94092 12.197ZM1.28418 1.28497L7.71191 1.28497L7.71191 2.82703L1.28418 2.82703L1.28418 1.28497ZM1.28418 4.11499L7.71191 4.11499L7.71191 5.65503L1.28418 5.65503L1.28418 4.11499ZM4.49805 13.868C3.95215 13.868 3.50586 13.425 3.50586 12.877C3.50586 12.329 3.95117 11.885 4.49805 11.885C5.04688 11.885 5.49023 12.329 5.49023 12.877C5.49023 13.425 5.04688 13.868 4.49805 13.868Z" fill-rule="nonzero" fill="#DFC320"/>
	<path id="path" d="M5.94092 12.197C5.94092 10.705 6.62598 9.383 7.68115 8.48297C8.06787 8.15802 8.52393 7.85498 8.99707 7.66199L8.99707 0L0 0L0 15.425L7.18408 15.425C6.41992 14.561 5.94092 13.438 5.94092 12.197ZM7.68115 8.48297L1.28418 8.48297L1.28418 6.94202L7.71191 6.94202L7.68115 8.48297ZM1.28418 1.28497L7.71191 1.28497L7.71191 2.82703L1.28418 2.82703L1.28418 1.28497ZM1.28418 4.11499L7.71191 4.11499L7.71191 5.65503L1.28418 5.65503L1.28418 4.11499ZM1.00049 9.48352L1.00049 14.4245L3.24414 14.4245C3.19092 14.3814 3.13965 14.3354 3.09082 14.2864C2.90674 14.1031 2.76465 13.8923 2.66309 13.654C2.55811 13.4062 2.50537 13.1472 2.50537 12.877C2.50537 12.6071 2.55811 12.3483 2.6626 12.1006C2.76367 11.8622 2.90625 11.6512 3.08984 11.4678C3.27295 11.2844 3.48389 11.1423 3.72266 11.0415C3.96973 10.9368 4.22852 10.8845 4.49805 10.8845C4.69482 10.8845 4.88574 10.9123 5.07031 10.9679C5.16602 10.5279 5.31348 10.0999 5.51416 9.68396C5.54639 9.61633 5.58008 9.5495 5.61523 9.48352L1.00049 9.48352ZM4.49805 13.868C3.95215 13.868 3.50586 13.425 3.50586 12.877C3.50586 12.329 3.95117 11.885 4.49805 11.885C5.04688 11.885 5.49023 12.329 5.49023 12.877C5.49023 13.425 5.04688 13.868 4.49805 13.868Z" fill-rule="evenodd" fill="#DFC320"/>
	<path id="path" d="M10.9995 16C8.79443 16 7 14.2057 7 11.9996C7 9.7951 8.79443 8 10.9995 8C13.2041 8 15 9.7951 15 11.9996C15 14.2065 13.2051 16 10.9995 16ZM10.9995 8.68689C9.17188 8.68689 7.68555 10.1745 7.68555 12.0004C7.68555 13.8295 9.17285 15.3163 10.9995 15.3163C12.8262 15.3163 14.314 13.8295 14.314 12.0004C14.3145 10.1745 12.8262 8.68689 10.9995 8.68689Z" fill-rule="evenodd" fill="#DFC320"/>
	<rect id="rect" x="9.448730" y="10.192627" width="1.092382" height="3.615453" fill="#DFC320"/>
	<rect id="rect" x="11.459473" y="10.192627" width="1.091592" height="3.615453" fill="#DFC320"/>
	<defs/>
</svg>
