<?xml version="1.0" encoding="utf-8"?>
<!-- Generator: Adobe Illustrator 16.0.0, SVG Export Plug-In . SVG Version: 6.00 Build 0)  -->
<!DOCTYPE svg PUBLIC "-//W3C//DTD SVG 1.1//EN" "http://www.w3.org/Graphics/SVG/1.1/DTD/svg11.dtd">
<svg version="1.1" id="图层_1" xmlns="http://www.w3.org/2000/svg" xmlns:xlink="http://www.w3.org/1999/xlink" x="0px" y="0px"
	 width="16px" height="16px" viewBox="0 0 16 16" enable-background="new 0 0 16 16" xml:space="preserve">
<g>
	<g>
		<path fill="#86CC16" d="M10.939,14.744c-2.79,0-5.061-2.27-5.061-5.061c0-2.789,2.271-5.06,5.061-5.06S16,6.895,16,9.684
			C16,12.475,13.729,14.744,10.939,14.744z M10.939,5.492c-2.312,0-4.193,1.882-4.193,4.192c0,2.312,1.881,4.193,4.193,4.193
			c2.312,0,4.193-1.881,4.193-4.193C15.133,7.374,13.252,5.492,10.939,5.492z"/>
		<polygon fill="#86CC16" points="9.74,12.352 9.799,7.016 13.154,9.715 		"/>
	</g>
	<g>
		<path fill="#86CC16" d="M7.073,5.689v-4.39H0v12.144h6.847c-0.912-0.992-1.474-2.311-1.474-3.76
			C5.373,8.117,6.027,6.702,7.073,5.689z M3.616,12.312c-0.442,0-0.802-0.361-0.802-0.803c0-0.443,0.36-0.803,0.802-0.803
			c0.445,0,0.803,0.359,0.803,0.803C4.419,11.951,4.061,12.312,3.616,12.312z M2.531,7.881L0.922,2.417h1.845L3.64,6.64h0.019
			l0.881-4.223h1.845l-1.66,5.464H2.531z"/>
	</g>
</g>
</svg>
