<?xml version="1.0" encoding="utf-8"?>
<!-- Generator: Adobe Illustrator 16.0.0, SVG Export Plug-In . SVG Version: 6.00 Build 0)  -->
<!DOCTYPE svg PUBLIC "-//W3C//DTD SVG 1.1//EN" "http://www.w3.org/Graphics/SVG/1.1/DTD/svg11.dtd">
<svg version="1.1" id="图层_1" xmlns="http://www.w3.org/2000/svg" xmlns:xlink="http://www.w3.org/1999/xlink" x="0px" y="0px"
	 width="16px" height="16px" viewBox="0 0 16 16" enable-background="new 0 0 16 16" xml:space="preserve">
<g>
	<g>
		<path fill="#F73139" d="M7.073,5.689v-4.39H0v12.144h6.846c-0.911-0.99-1.473-2.309-1.473-3.758
			C5.373,8.117,6.027,6.703,7.073,5.689z M3.616,12.312c-0.441,0-0.801-0.359-0.801-0.803s0.36-0.803,0.801-0.803
			c0.445,0,0.803,0.359,0.803,0.803S4.061,12.312,3.616,12.312z M2.531,7.883L0.923,2.419h1.845L3.64,6.64h0.019l0.882-4.221h1.845
			L4.726,7.883H2.531z"/>
	</g>
	<g>
		<g>
			<path fill="#F73139" d="M10.49,10.965h0.988v-0.771c0-0.209,0.098-0.406,0.357-0.578c0.262-0.168,0.986-0.516,0.986-1.425
				c0-0.91-0.762-1.535-1.404-1.668c-0.641-0.134-1.334-0.045-1.828,0.495C9.15,7.498,9.057,7.883,9.057,8.726h0.989V8.531
				c0-0.452,0.052-0.925,0.693-1.054c0.351-0.073,0.679,0.039,0.874,0.228c0.223,0.22,0.227,0.71-0.129,0.955l-0.559,0.379
				C10.601,9.246,10.49,9.48,10.49,9.818V10.965L10.49,10.965z"/>
			<path fill="#F73139" d="M10.985,11.609c0.356,0,0.647,0.291,0.647,0.648s-0.291,0.646-0.647,0.646
				c-0.357,0-0.647-0.289-0.647-0.646S10.628,11.609,10.985,11.609z"/>
		</g>
		<path fill="#F73139" d="M10.939,14.746c-2.791,0-5.06-2.27-5.06-5.061c0-2.79,2.269-5.061,5.06-5.061S16,6.896,16,9.686
			C16,12.477,13.73,14.746,10.939,14.746z M10.939,5.492c-2.311,0-4.193,1.883-4.193,4.194c0,2.312,1.882,4.193,4.193,4.193
			c2.312,0,4.193-1.881,4.193-4.193C15.133,7.375,13.252,5.492,10.939,5.492z"/>
	</g>
</g>
</svg>
