<?xml version="1.0" encoding="utf-8"?>
<!-- Generator: Adobe Illustrator 16.0.0, SVG Export Plug-In . SVG Version: 6.00 Build 0)  -->
<!DOCTYPE svg PUBLIC "-//W3C//DTD SVG 1.1//EN" "http://www.w3.org/Graphics/SVG/1.1/DTD/svg11.dtd">
<svg version="1.1" id="图层_1" xmlns="http://www.w3.org/2000/svg" xmlns:xlink="http://www.w3.org/1999/xlink" x="0px" y="0px"
	 width="16px" height="16px" viewBox="0 0 16 16" enable-background="new 0 0 16 16" xml:space="preserve">
<g>
	<path fill="#88CC67" d="M8,0C4.119,0,0.975,1.399,0.975,3.127S4.119,6.254,8,6.254s7.025-1.399,7.025-3.127S11.881,0,8,0z"/>
	<g>
		<path fill="#88CC67" d="M8,7.111c-3.881,0-7.025-1.398-7.025-3.127c0,0.722,0,1.203,0,2.392c0,1.728,3.145,3.127,7.025,3.127
			s7.025-1.399,7.025-3.127c0-0.635,0-1.297,0-2.392C15.025,5.713,11.881,7.111,8,7.111z"/>
	</g>
	<g>
		<path fill="#88CC67" d="M8,10.36c-3.881,0-7.025-1.399-7.025-3.127c0,0.722,0,1.203,0,2.391c0,1.729,3.145,3.127,7.025,3.127
			s7.025-1.398,7.025-3.127c0-0.634,0-1.296,0-2.391C15.025,8.961,11.881,10.36,8,10.36z"/>
	</g>
	<g>
		<path fill="#88CC67" d="M8,13.609c-3.881,0-7.025-1.399-7.025-3.127c0,0.722,0,1.203,0,2.391C0.975,14.601,4.119,16,8,16
			s7.025-1.399,7.025-3.127c0-0.635,0-1.296,0-2.391C15.025,12.21,11.881,13.609,8,13.609z"/>
	</g>
</g>
</svg>
