<?xml version="1.0" encoding="utf-8"?>
<!-- Generator: Adobe Illustrator 16.0.0, SVG Export Plug-In . SVG Version: 6.00 Build 0)  -->
<!DOCTYPE svg PUBLIC "-//W3C//DTD SVG 1.1//EN" "http://www.w3.org/Graphics/SVG/1.1/DTD/svg11.dtd">
<svg version="1.1" id="图层_1" xmlns="http://www.w3.org/2000/svg" xmlns:xlink="http://www.w3.org/1999/xlink" x="0px" y="0px"
	 width="16px" height="16px" viewBox="0 0 16 16" enable-background="new 0 0 16 16" xml:space="preserve">
<g>
	<path fill="#6F7985" d="M5.039,11.578h5.892V1.48H5.039V11.578z M7.986,10.559c-0.358,0-0.648-0.291-0.648-0.65
		c0-0.356,0.29-0.646,0.648-0.646c0.355,0,0.647,0.29,0.647,0.646C8.634,10.268,8.342,10.559,7.986,10.559z M5.883,2.322h4.206
		v1.012H5.883V2.322z M5.883,4.175h4.206v1.007H5.883V4.175z M5.883,6.023h4.206v1.013H5.883V6.023z"/>
	<polygon fill="#6F7985" points="11.338,2.953 11.954,2.953 11.954,3.811 11.338,3.811 11.338,4.526 11.954,4.526 11.954,5.383 
		11.338,5.383 11.338,6.098 11.954,6.098 11.954,6.96 11.338,6.96 11.338,10.82 12.67,10.82 12.67,2.238 11.338,2.238 	"/>
	<path fill="#6F7985" d="M13.253,10.429v0.975h-1.739v0.759H4.456v-0.759H2.748v-0.975C1.067,10.856,0,11.484,0,12.186
		c0,1.289,3.582,2.334,8,2.334s8-1.045,8-2.334C16,11.484,14.934,10.856,13.253,10.429z"/>
	<polygon fill="#6F7985" points="4.663,2.238 3.331,2.238 3.331,10.82 4.663,10.82 4.663,6.96 4.046,6.96 4.046,6.098 4.663,6.098 
		4.663,5.383 4.046,5.383 4.046,4.526 4.663,4.526 4.663,3.811 4.046,3.811 4.046,2.953 4.663,2.953 	"/>
</g>
</svg>
