<?xml version="1.0" encoding="utf-8"?>
<!-- Generator: Adobe Illustrator 16.0.0, SVG Export Plug-In . SVG Version: 6.00 Build 0)  -->
<!DOCTYPE svg PUBLIC "-//W3C//DTD SVG 1.1//EN" "http://www.w3.org/Graphics/SVG/1.1/DTD/svg11.dtd">
<svg version="1.1" id="图层_1" xmlns="http://www.w3.org/2000/svg" xmlns:xlink="http://www.w3.org/1999/xlink" x="0px" y="0px"
	 width="16px" height="16px" viewBox="0 0 16 16" enable-background="new 0 0 16 16" xml:space="preserve">
<g>
	<path fill="#6F7985" d="M6.466,15.948l-0.135-0.135L6.062,15.55c-0.441-0.504-0.621-1.08-0.564-1.623
		c-0.186,0.27-0.48,0.457-0.832,0.457c-0.566,0-1.027-0.46-1.027-1.028s0.461-1.027,1.027-1.027c0.549,0,0.984,0.431,1.016,0.972
		c0.088-0.173,0.195-0.34,0.34-0.489l0.047-0.049l1.245-0.981c-0.34-0.137-0.652-0.34-0.92-0.607
		c-0.619-0.619-0.878-1.506-0.744-2.372H1.334V7.2h4.701l0.029-0.11L5.966,6.992l0.135-0.036L6.135,6.83l0.092,0.093L7.646,6.55
		C7.879,6.488,8.12,6.457,8.36,6.457c0.339,0,0.667,0.067,0.974,0.183V0H0v16h0.666h5.873C6.516,15.981,6.488,15.968,6.466,15.948z
		 M1.334,1.334h6.664v1.598H1.334V1.334z M1.334,4.267h6.664v1.599H1.334V4.267z"/>
	<g>
		<path fill="#F74848" d="M9.346,10.689l3.889,4.938c0.594,0.57,1.236,0.215,1.514-0.031l0.318-0.312
			c0.236-0.273,0.598-0.833,0.082-1.518l-4.992-3.885c0.396-0.747,0.291-1.693-0.338-2.323C9.301,7.041,8.573,6.877,7.914,7.051
			l1.204,1.208v1.394H7.72L6.518,8.448c-0.176,0.66-0.013,1.39,0.501,1.903C7.651,10.984,8.598,11.092,9.346,10.689z M13.74,14.861
			c-0.162-0.164-0.162-0.427,0-0.585c0.16-0.161,0.422-0.161,0.584,0c0.158,0.158,0.158,0.421,0,0.585
			C14.162,15.02,13.9,15.02,13.74,14.861z"/>
		<path fill="#F74848" d="M10.562,10.77l0.434-0.066l2.723-2.725V7.631l1.398-0.698l0.35,0.35l-0.699,1.398H14.42l-2.762,2.756
			l-0.051,0.373l-3.045,3.912c-0.688,0.266-1.246,0.156-1.519-0.082l-0.312-0.314C6.486,15.045,6.127,14.4,6.7,13.81L10.562,10.77z"
			/>
	</g>
</g>
</svg>
