<svg width="15.000000" height="16.000793" viewBox="0 0 15 16.0008" fill="none" xmlns="http://www.w3.org/2000/svg" xmlns:xlink="http://www.w3.org/1999/xlink">
	<desc>
			Created with Pixso.
	</desc>
	<path id="path" d="M5.94092 12.197C5.94092 10.705 6.62598 9.383 7.68115 8.48297L1.28418 8.48297L1.28418 6.94202L7.71191 6.94202L7.68115 8.48297C8.06787 8.15802 8.52393 7.85498 8.99707 7.66199L8.99707 0L0 0L0 15.425L0.64209 15.425L7.18408 15.425C6.41992 14.561 5.94092 13.438 5.94092 12.197ZM1.28418 1.28497L7.71191 1.28497L7.71191 2.82703L1.28418 2.82703L1.28418 1.28497ZM1.28418 4.11499L7.71191 4.11499L7.71191 5.65503L1.28418 5.65503L1.28418 4.11499ZM4.49805 13.868C3.95215 13.868 3.50586 13.425 3.50586 12.877C3.50586 12.329 3.95117 11.885 4.49805 11.885C5.04688 11.885 5.49023 12.329 5.49023 12.877C5.49023 13.425 5.04688 13.868 4.49805 13.868Z" fill-rule="nonzero" fill="#F73139"/>
	<path id="path" d="M5.94092 12.197C5.94092 10.705 6.62598 9.383 7.68115 8.48297C8.06787 8.15802 8.52393 7.85498 8.99707 7.66199L8.99707 0L0 0L0 15.425L7.18408 15.425C6.41992 14.561 5.94092 13.438 5.94092 12.197ZM7.68115 8.48297L1.28418 8.48297L1.28418 6.94202L7.71191 6.94202L7.68115 8.48297ZM1.28418 1.28497L7.71191 1.28497L7.71191 2.82703L1.28418 2.82703L1.28418 1.28497ZM1.28418 4.11499L7.71191 4.11499L7.71191 5.65503L1.28418 5.65503L1.28418 4.11499ZM1.00049 9.48352L1.00049 14.4245L3.24414 14.4245Q3.16455 14.3599 3.09082 14.2864Q2.81494 14.0115 2.66309 13.654Q2.50537 13.2823 2.50537 12.877Q2.50537 12.472 2.6626 12.1006Q2.81445 11.743 3.08984 11.4678Q3.36475 11.1927 3.72266 11.0415Q4.09375 10.8845 4.49805 10.8845Q4.79346 10.8845 5.07031 10.9679Q5.21338 10.3079 5.51416 9.68396Q5.56299 9.58252 5.61523 9.48352L1.00049 9.48352ZM4.49805 13.868C3.95215 13.868 3.50586 13.425 3.50586 12.877C3.50586 12.329 3.95117 11.885 4.49805 11.885C5.04688 11.885 5.49023 12.329 5.49023 12.877C5.49023 13.425 5.04688 13.868 4.49805 13.868Z" fill-rule="evenodd" fill="#F73139"/>
	<path id="path" d="M10.645 13.0121L11.4258 13.0121L11.4258 12.4027C11.4258 12.2375 11.5034 12.0818 11.708 11.9458C11.915 11.813 12.4873 11.538 12.4873 10.8195C12.4873 10.1002 11.8853 9.60614 11.3774 9.50098C10.8711 9.39508 10.3232 9.46539 9.93262 9.89227C9.58594 10.2717 9.51221 10.576 9.51221 11.2423L10.2939 11.2423L10.2939 11.0882C10.2939 10.7309 10.335 10.3571 10.8418 10.2551C11.1191 10.1974 11.3784 10.2859 11.5327 10.4353C11.709 10.6092 11.7119 10.9965 11.4307 11.1901L10.9888 11.4897C10.7324 11.6533 10.645 11.8383 10.645 12.1055L10.645 13.0121Z" fill-rule="evenodd" fill="#F73139"/>
	<path id="path" d="M11.0356 13.5212C11.3174 13.5212 11.5474 13.7512 11.5474 14.0334C11.5474 14.3156 11.3174 14.544 11.0356 14.544C10.7534 14.544 10.5244 14.3156 10.5244 14.0334C10.5244 13.7512 10.7534 13.5212 11.0356 13.5212Z" fill-rule="evenodd" fill="#F73139"/>
	<path id="path" d="M10.9995 16.0008C8.79346 16.0008 7 14.2065 7 12.0004C7 9.7951 8.79346 8 10.9995 8C13.2056 8 15 9.7959 15 12.0012C15 14.2073 13.2056 16.0008 10.9995 16.0008ZM10.9995 8.6861C9.17285 8.6861 7.68555 10.1745 7.68555 12.0012C7.68555 13.8287 9.17285 15.3155 10.9995 15.3155C12.8271 15.3155 14.314 13.8287 14.314 12.0012C14.3145 10.1745 12.8281 8.6861 10.9995 8.6861Z" fill-rule="evenodd" fill="#F73139"/>
	<defs/>
</svg>
