<svg width="16.000000" height="16.000000" viewBox="0 0 16 16" fill="none" xmlns="http://www.w3.org/2000/svg" xmlns:xlink="http://www.w3.org/1999/xlink">
	<desc>
			Created with Pixso.
	</desc>
	<g clip-path="url(#clip111_22)">
		<path id="path" d="M5.94092 12.197C5.94092 10.705 6.62598 9.383 7.68115 8.48297L1.28418 8.48297L1.28418 6.94202L7.71191 6.94202L7.68115 8.48297C8.06787 8.15802 8.52393 7.85498 8.99707 7.66199L8.99707 0L0 0L0 15.425L0.64209 15.425L7.18408 15.425C6.41992 14.561 5.94092 13.438 5.94092 12.197ZM1.28418 1.28497L7.71191 1.28497L7.71191 2.82703L1.28418 2.82703L1.28418 1.28497ZM1.28418 4.11499L7.71191 4.11499L7.71191 5.65503L1.28418 5.65503L1.28418 4.11499ZM4.49805 13.868C3.95215 13.868 3.50586 13.425 3.50586 12.877C3.50586 12.329 3.95117 11.885 4.49805 11.885C5.04688 11.885 5.49023 12.329 5.49023 12.877C5.49023 13.425 5.04688 13.868 4.49805 13.868Z" fill-rule="nonzero" fill="#F73139"/>
		<path id="path" d="M10.6997 15.98C8.49365 15.98 6.7002 14.1857 6.7002 11.9796C6.7002 9.77509 8.49365 7.97998 10.6997 7.97998C12.9058 7.97998 14.7002 9.77588 14.7002 11.9803C14.7002 14.1865 12.9058 15.98 10.6997 15.98ZM10.6997 8.66608C8.87305 8.66608 7.38574 10.1545 7.38574 11.9803C7.38574 13.8079 8.87305 15.2947 10.6997 15.2947C12.5273 15.2947 14.0142 13.8079 14.0142 11.9803C14.0146 10.1545 12.5273 8.66608 10.6997 8.66608Z" fill-rule="nonzero" fill="#F73139"/>
		<rect id="rect" x="8.893555" y="10.172668" width="3.612292" height="3.614662" fill="#F73139"/>
	</g>
	<defs>
		<clipPath id="clip111_22">
			<rect id="host_open1" width="16.000000" height="16.000000" fill="white"/>
		</clipPath>
	</defs>
</svg>
