<?xml version="1.0" encoding="utf-8"?>
<!-- Generator: Adobe Illustrator 16.0.0, SVG Export Plug-In . SVG Version: 6.00 Build 0)  -->
<!DOCTYPE svg PUBLIC "-//W3C//DTD SVG 1.1//EN" "http://www.w3.org/Graphics/SVG/1.1/DTD/svg11.dtd">
<svg version="1.1" id="图层_1" xmlns="http://www.w3.org/2000/svg" xmlns:xlink="http://www.w3.org/1999/xlink" x="0px" y="0px"
	 width="16px" height="16px" viewBox="0 0 16 16" enable-background="new 0 0 16 16" xml:space="preserve">
<g>
	<g>
		<path fill="#F73139" d="M7.073,5.689v-4.39H0v12.145h6.846c-0.911-0.992-1.473-2.311-1.473-3.76
			C5.373,8.117,6.027,6.703,7.073,5.689z M3.616,12.312c-0.441,0-0.801-0.359-0.801-0.803s0.36-0.801,0.801-0.801
			c0.445,0,0.803,0.357,0.803,0.801S4.061,12.312,3.616,12.312z M2.531,7.883L0.923,2.419h1.845L3.64,6.64h0.019l0.882-4.221h1.845
			L4.726,7.883H2.531z"/>
	</g>
	<g>
		<path fill="#F73139" d="M10.939,14.745c-2.791,0-5.06-2.27-5.06-5.061c0-2.789,2.269-5.06,5.06-5.06S16,6.896,16,9.685
			C16,12.476,13.73,14.745,10.939,14.745z M10.939,5.492c-2.311,0-4.193,1.883-4.193,4.193c0,2.312,1.882,4.193,4.193,4.193
			c2.312,0,4.193-1.881,4.193-4.193C15.133,7.375,13.251,5.492,10.939,5.492z"/>
		<rect x="8.654" y="7.398" fill="#F73139" width="4.57" height="4.573"/>
	</g>
</g>
</svg>
