<?xml version="1.0" encoding="utf-8"?>
<!-- Generator: Adobe Illustrator 16.0.0, SVG Export Plug-In . SVG Version: 6.00 Build 0)  -->
<!DOCTYPE svg PUBLIC "-//W3C//DTD SVG 1.1//EN" "http://www.w3.org/Graphics/SVG/1.1/DTD/svg11.dtd">
<svg version="1.1" id="图层_1" xmlns="http://www.w3.org/2000/svg" xmlns:xlink="http://www.w3.org/1999/xlink" x="0px" y="0px"
	 width="16px" height="16px" viewBox="0 0 16 16" enable-background="new 0 0 16 16" xml:space="preserve">
<g>
	<g>
		<path fill="#DFC320" d="M7.073,5.69V1.299H0v12.144h6.846c-0.911-0.992-1.473-2.311-1.473-3.76
			C5.373,8.117,6.027,6.702,7.073,5.69z M3.616,12.311c-0.441,0-0.801-0.359-0.801-0.801c0-0.443,0.36-0.803,0.801-0.803
			c0.445,0,0.803,0.359,0.803,0.803C4.419,11.951,4.061,12.311,3.616,12.311z M2.531,7.881L0.923,2.418h1.845L3.64,6.64h0.019
			l0.882-4.222h1.845L4.726,7.881H2.531z"/>
	</g>
	<g>
		<path fill="#DFC320" d="M10.939,14.744c-2.79,0-5.06-2.27-5.06-5.061c0-2.789,2.27-5.06,5.06-5.06c2.789,0,5.061,2.271,5.061,5.06
			C16,12.475,13.729,14.744,10.939,14.744z M10.939,5.492c-2.312,0-4.193,1.882-4.193,4.192c0,2.314,1.882,4.195,4.193,4.195
			c2.311,0,4.193-1.881,4.193-4.195C15.133,7.374,13.25,5.492,10.939,5.492z"/>
		<g>
			<rect x="8.977" y="7.397" fill="#DFC320" width="1.382" height="4.574"/>
			<rect x="11.521" y="7.397" fill="#DFC320" width="1.381" height="4.574"/>
		</g>
	</g>
</g>
</svg>
